#!OML:ASF I:\Actors\actors\Patient Classification 1\Patient 1\Session 1\Subject1.ASF
:FULLY-SPECIFIED
:DEGREES
653
root -1.22142 17.6318 8.90546 7.03459 26.4192 -10.137
lowerback 9.2476 5.53674 6.92687
upperback -8.3304 8.12804 -4.84695
thorax -12.7074 2.97009 -10.8575
lowerneck -12.2055 -12.2722 -11.1412
upperneck 24.0998 -16.3797 6.26983
head 11.2944 -7.79749 1.71291
rclavicle 5.8393e-014 2.54444e-014
rhumerus 6.63984 14.7622 -42.1112
rradius 102.67
rwrist -3.51721
rhand 5.14292 -58.7173
rfingers 7.12502
rthumb 30.5063 273.788
lclavicle 5.8393e-014 2.54444e-014
lhumerus -46.8468 -17.2712 51.8745
lradius 133.615
lwrist -331.316
lhand -3.85686 -29.7325
lfingers 7.12502
lthumb 21.8914 -0.950979
rfemur 1.85547 18.1268 33.8557
rtibia 0.327402
rfoot -26.5262 -40.7396
rtoes 23.1732
lfemur -13.1176 -28.5279 1.63661
ltibia 6.0229
lfoot -6.80543 16.1118
ltoes -22.6365
654
root -1.20285 17.6254 8.9336 6.80894 27.3692 -10.4167
lowerback 9.0304 5.30606 6.64359
upperback -8.34161 7.78211 -4.61219
thorax -12.7303 2.84328 -10.3511
lowerneck -12.0627 -12.2808 -11.3435
upperneck 24.2206 -16.3369 6.1604
head 11.3181 -7.8101 1.71731
rclavicle -8.03587e-014 1.43125e-014
rhumerus 3.62797 14.7194 -43.2221
rradius 109.009
rwrist -2.59055
rhand 5.60099 -58.9538
rfingers 7.12502
rthumb 30.943 273.634
lclavicle -8.03587e-014 1.43125e-014
lhumerus -47.0186 -16.651 52.5248
lradius 133.589
lwrist -332.693
lhand -3.932 -29.3775
lfingers 7.12502
lthumb 21.8193 -0.587563
rfemur 1.96753 17.8527 34.2835
rtibia 0.410654
rfoot -26.9388 -41.333
rtoes 23.2061
lfemur -13.6004 -28.3829 2.0485
ltibia 6.38889
lfoot -7.11738 14.9006
ltoes -22.4111
655
root -1.17326 17.6152 8.95766 6.41763 27.9255 -10.8488
lowerback 8.91087 5.15777 6.56724
upperback -8.36778 7.59829 -4.27873
thorax -12.7805 2.77717 -9.88942
lowerneck -11.9033 -12.224 -11.4165
upperneck 24.2424 -16.1779 5.8869
head 11.261 -7.77991 1.66904
rclavicle -5.21313e-014 3.18055e-015
rhumerus 1.43247 14.8284 -44.0064
rradius 114.453
rwrist -1.60515
rhand 5.60023 -59.4348
rfingers 7.12502
rthumb 30.9423 273.153
lclavicle -5.21313e-014 3.18055e-015
lhumerus -47.6764 -16.0897 53.0975
lradius 133.343
lwrist -333.278
lhand -4.16687 -29.6642
lfingers 7.12502
lthumb 21.5937 -0.848146
rfemur 2.20968 17.3771 34.7835
rtibia 0.475277
rfoot -26.9552 -41.4855
rtoes 22.8752
lfemur -13.569 -28.4393 2.38548
ltibia 6.4556
lfoot -7.25976 14.3065
ltoes -22.4951
656
root -1.14179 17.6037 8.97484 6.06792 28.139 -11.1509
lowerback 8.92053 5.05802 6.43574
upperback -8.40894 7.47892 -3.96156
thorax -12.9166 2.73848 -9.44678
lowerneck -11.7718 -12.1455 -11.5943
upperneck 24.1244 -16.013 5.82213
head 11.1864 -7.73373 1.71015
rclavicle 2.60905e-015 -9.54166e-015
rhumerus 0.0745076 15.0929 -44.3665
rradius 119.115
rwrist -0.432838
rhand 5.4967 -60.0663
rfingers 7.12502
rthumb 30.8436 272.503
lclavicle 2.60905e-015 -9.54166e-015
lhumerus -48.3226 -15.4757 53.2992
lradius 133.446
lwrist -332.667
lhand -3.97056 -29.403
lfingers 7.12502
lthumb 21.7822 -0.608719
rfemur 2.44748 16.9922 35.0862
rtibia 0.568924
rfoot -26.9968 -41.3905
rtoes 22.954
lfemur -13.2833 -28.7334 2.47496
ltibia 6.42773
lfoot -7.32946 14.2946
ltoes -22.7382
657
root -1.11412 17.5922 8.98262 5.82481 28.1548 -11.3669
lowerback 9.15305 4.96894 6.49728
upperback -8.53653 7.40306 -3.82595
thorax -13.2396 2.67355 -9.36594
lowerneck -11.7406 -12.1016 -12.0438
upperneck 24.0671 -15.9806 6.2779
head 11.2424 -7.70876 1.94207
rclavicle 8.43841e-014 2.38542e-014
rhumerus -0.58546 15.2072 -44.4743
rradius 122.866
rwrist 0.283395
rhand 5.92991 -60.4655
rfingers 7.12502
rthumb 31.2565 272.182
lclavicle 8.43841e-014 2.38542e-014
lhumerus -48.6385 -15.1985 52.8461
lradius 133.682
lwrist -331.729
lhand -3.5362 -28.8382
lfingers 7.12502
lthumb 22.1993 -0.0929091
rfemur 2.58517 16.734 35.2527
rtibia 0.645756
rfoot -26.9186 -41.2737
rtoes 23.2275
lfemur -13.0909 -29.2034 2.498
ltibia 6.56091
lfoot -7.52841 14.6969
ltoes -22.5412
